<mxfile host="app.diagrams.net" agent="Mozilla/5.0 (Windows NT 10.0; Win64; x64) AppleWebKit/537.36 (KHTML, like Gecko) Chrome/128.0.0.0 Safari/537.36" version="24.7.12">
  <diagram name="Halaman-1" id="xg6G7Nwjp2S8UQtPQ49u">
    <mxGraphModel dx="1876" dy="3329" grid="1" gridSize="10" guides="1" tooltips="1" connect="1" arrows="1" fold="1" page="1" pageScale="1" pageWidth="827" pageHeight="1169" math="0" shadow="0">
      <root>
        <mxCell id="0" />
        <mxCell id="1" parent="0" />
        <mxCell id="PwuGtuINyydhHZ7qy8_O-1" value="&lt;b&gt;&lt;font style=&quot;font-size: 16px;&quot;&gt;Sales &amp;amp; Purchasing Cycle&lt;/font&gt;&lt;/b&gt;" style="text;html=1;align=center;verticalAlign=middle;whiteSpace=wrap;rounded=0;" vertex="1" parent="1">
          <mxGeometry x="314" y="-2300" width="230" height="70" as="geometry" />
        </mxCell>
        <mxCell id="PwuGtuINyydhHZ7qy8_O-3" value="Kelompok Barang" style="rounded=0;whiteSpace=wrap;html=1;" vertex="1" parent="1">
          <mxGeometry x="80" y="-1970" width="110" height="50" as="geometry" />
        </mxCell>
        <mxCell id="PwuGtuINyydhHZ7qy8_O-4" value="Barang" style="rounded=0;whiteSpace=wrap;html=1;" vertex="1" parent="1">
          <mxGeometry x="390" y="-1970" width="80" height="50" as="geometry" />
        </mxCell>
        <mxCell id="PwuGtuINyydhHZ7qy8_O-5" value="Transaksi_Penjualan" style="rounded=0;whiteSpace=wrap;html=1;" vertex="1" parent="1">
          <mxGeometry x="640" y="-1970" width="120" height="50" as="geometry" />
        </mxCell>
        <mxCell id="PwuGtuINyydhHZ7qy8_O-6" value="Pemasok" style="rounded=0;whiteSpace=wrap;html=1;" vertex="1" parent="1">
          <mxGeometry x="370" y="-1770" width="120" height="60" as="geometry" />
        </mxCell>
        <mxCell id="PwuGtuINyydhHZ7qy8_O-7" value="kd_kelompok" style="ellipse;whiteSpace=wrap;html=1;" vertex="1" parent="1">
          <mxGeometry x="20" y="-2080" width="90" height="40" as="geometry" />
        </mxCell>
        <mxCell id="PwuGtuINyydhHZ7qy8_O-8" value="nm_kelompok" style="ellipse;whiteSpace=wrap;html=1;" vertex="1" parent="1">
          <mxGeometry x="180" y="-2075" width="90" height="30" as="geometry" />
        </mxCell>
        <mxCell id="PwuGtuINyydhHZ7qy8_O-9" value="Keterangan" style="ellipse;whiteSpace=wrap;html=1;" vertex="1" parent="1">
          <mxGeometry x="95" y="-2150" width="90" height="40" as="geometry" />
        </mxCell>
        <mxCell id="PwuGtuINyydhHZ7qy8_O-12" value="kd_brg" style="ellipse;whiteSpace=wrap;html=1;" vertex="1" parent="1">
          <mxGeometry x="300" y="-2040" width="90" height="40" as="geometry" />
        </mxCell>
        <mxCell id="PwuGtuINyydhHZ7qy8_O-13" value="hrg_satuan" style="ellipse;whiteSpace=wrap;html=1;" vertex="1" parent="1">
          <mxGeometry x="479" y="-2120" width="90" height="40" as="geometry" />
        </mxCell>
        <mxCell id="PwuGtuINyydhHZ7qy8_O-14" value="jml_stok" style="ellipse;whiteSpace=wrap;html=1;" vertex="1" parent="1">
          <mxGeometry x="385" y="-2190" width="90" height="40" as="geometry" />
        </mxCell>
        <mxCell id="PwuGtuINyydhHZ7qy8_O-15" value="nm_brg" style="ellipse;whiteSpace=wrap;html=1;" vertex="1" parent="1">
          <mxGeometry x="470" y="-2040" width="90" height="40" as="geometry" />
        </mxCell>
        <mxCell id="PwuGtuINyydhHZ7qy8_O-16" value="satuan" style="ellipse;whiteSpace=wrap;html=1;" vertex="1" parent="1">
          <mxGeometry x="294" y="-2115" width="90" height="40" as="geometry" />
        </mxCell>
        <mxCell id="PwuGtuINyydhHZ7qy8_O-18" value="no_jual" style="ellipse;whiteSpace=wrap;html=1;" vertex="1" parent="1">
          <mxGeometry x="590" y="-2045" width="90" height="40" as="geometry" />
        </mxCell>
        <mxCell id="PwuGtuINyydhHZ7qy8_O-19" value="tgl_jual" style="ellipse;whiteSpace=wrap;html=1;" vertex="1" parent="1">
          <mxGeometry x="730" y="-2045" width="90" height="40" as="geometry" />
        </mxCell>
        <mxCell id="PwuGtuINyydhHZ7qy8_O-20" value="total" style="ellipse;whiteSpace=wrap;html=1;" vertex="1" parent="1">
          <mxGeometry x="590" y="-2120" width="90" height="40" as="geometry" />
        </mxCell>
        <mxCell id="PwuGtuINyydhHZ7qy8_O-21" value="jml_brg" style="ellipse;whiteSpace=wrap;html=1;" vertex="1" parent="1">
          <mxGeometry x="730" y="-2120" width="90" height="40" as="geometry" />
        </mxCell>
        <mxCell id="PwuGtuINyydhHZ7qy8_O-22" value="" style="endArrow=none;html=1;rounded=0;exitX=0.5;exitY=0;exitDx=0;exitDy=0;" edge="1" parent="1" source="PwuGtuINyydhHZ7qy8_O-3">
          <mxGeometry width="50" height="50" relative="1" as="geometry">
            <mxPoint x="140" y="-2000" as="sourcePoint" />
            <mxPoint x="70" y="-2040" as="targetPoint" />
            <Array as="points">
              <mxPoint x="70" y="-2040" />
            </Array>
          </mxGeometry>
        </mxCell>
        <mxCell id="PwuGtuINyydhHZ7qy8_O-24" value="" style="endArrow=none;html=1;rounded=0;exitX=0.5;exitY=0;exitDx=0;exitDy=0;" edge="1" parent="1" source="PwuGtuINyydhHZ7qy8_O-3" target="PwuGtuINyydhHZ7qy8_O-9">
          <mxGeometry width="50" height="50" relative="1" as="geometry">
            <mxPoint x="150" y="-1980" as="sourcePoint" />
            <mxPoint x="140" y="-2107" as="targetPoint" />
          </mxGeometry>
        </mxCell>
        <mxCell id="PwuGtuINyydhHZ7qy8_O-25" value="" style="endArrow=none;html=1;rounded=0;entryX=0.5;entryY=1;entryDx=0;entryDy=0;" edge="1" parent="1" target="PwuGtuINyydhHZ7qy8_O-8">
          <mxGeometry width="50" height="50" relative="1" as="geometry">
            <mxPoint x="140" y="-1970" as="sourcePoint" />
            <mxPoint x="210" y="-2040" as="targetPoint" />
          </mxGeometry>
        </mxCell>
        <mxCell id="PwuGtuINyydhHZ7qy8_O-26" value="" style="endArrow=none;html=1;rounded=0;entryX=0.5;entryY=1;entryDx=0;entryDy=0;exitX=0.5;exitY=0;exitDx=0;exitDy=0;" edge="1" parent="1" source="PwuGtuINyydhHZ7qy8_O-4" target="PwuGtuINyydhHZ7qy8_O-15">
          <mxGeometry width="50" height="50" relative="1" as="geometry">
            <mxPoint x="450" y="-1960" as="sourcePoint" />
            <mxPoint x="500" y="-2010" as="targetPoint" />
          </mxGeometry>
        </mxCell>
        <mxCell id="PwuGtuINyydhHZ7qy8_O-31" value="" style="endArrow=none;html=1;rounded=0;exitX=0.5;exitY=0;exitDx=0;exitDy=0;entryX=0.5;entryY=1;entryDx=0;entryDy=0;" edge="1" parent="1" source="PwuGtuINyydhHZ7qy8_O-4" target="PwuGtuINyydhHZ7qy8_O-12">
          <mxGeometry width="50" height="50" relative="1" as="geometry">
            <mxPoint x="330" y="-1960" as="sourcePoint" />
            <mxPoint x="380" y="-2010" as="targetPoint" />
          </mxGeometry>
        </mxCell>
        <mxCell id="PwuGtuINyydhHZ7qy8_O-32" value="" style="endArrow=none;html=1;rounded=0;exitX=0.5;exitY=0;exitDx=0;exitDy=0;entryX=0;entryY=1;entryDx=0;entryDy=0;" edge="1" parent="1" source="PwuGtuINyydhHZ7qy8_O-4" target="PwuGtuINyydhHZ7qy8_O-13">
          <mxGeometry width="50" height="50" relative="1" as="geometry">
            <mxPoint x="430" y="-2010" as="sourcePoint" />
            <mxPoint x="480" y="-2060" as="targetPoint" />
          </mxGeometry>
        </mxCell>
        <mxCell id="PwuGtuINyydhHZ7qy8_O-33" value="" style="endArrow=none;html=1;rounded=0;exitX=0.5;exitY=0;exitDx=0;exitDy=0;entryX=1;entryY=1;entryDx=0;entryDy=0;" edge="1" parent="1" source="PwuGtuINyydhHZ7qy8_O-4" target="PwuGtuINyydhHZ7qy8_O-16">
          <mxGeometry width="50" height="50" relative="1" as="geometry">
            <mxPoint x="410" y="-2040" as="sourcePoint" />
            <mxPoint x="460" y="-2090" as="targetPoint" />
          </mxGeometry>
        </mxCell>
        <mxCell id="PwuGtuINyydhHZ7qy8_O-34" value="" style="endArrow=none;html=1;rounded=0;exitX=0.5;exitY=0;exitDx=0;exitDy=0;entryX=0.5;entryY=1;entryDx=0;entryDy=0;" edge="1" parent="1" source="PwuGtuINyydhHZ7qy8_O-4" target="PwuGtuINyydhHZ7qy8_O-14">
          <mxGeometry width="50" height="50" relative="1" as="geometry">
            <mxPoint x="440" y="-2090" as="sourcePoint" />
            <mxPoint x="490" y="-2140" as="targetPoint" />
          </mxGeometry>
        </mxCell>
        <mxCell id="PwuGtuINyydhHZ7qy8_O-35" value="" style="endArrow=none;html=1;rounded=0;entryX=0.5;entryY=1;entryDx=0;entryDy=0;exitX=0.5;exitY=0;exitDx=0;exitDy=0;" edge="1" parent="1" source="PwuGtuINyydhHZ7qy8_O-5" target="PwuGtuINyydhHZ7qy8_O-19">
          <mxGeometry width="50" height="50" relative="1" as="geometry">
            <mxPoint x="680" y="-1960" as="sourcePoint" />
            <mxPoint x="730" y="-2010" as="targetPoint" />
          </mxGeometry>
        </mxCell>
        <mxCell id="PwuGtuINyydhHZ7qy8_O-36" value="" style="endArrow=none;html=1;rounded=0;exitX=0.5;exitY=0;exitDx=0;exitDy=0;entryX=0;entryY=1;entryDx=0;entryDy=0;" edge="1" parent="1" source="PwuGtuINyydhHZ7qy8_O-5" target="PwuGtuINyydhHZ7qy8_O-21">
          <mxGeometry width="50" height="50" relative="1" as="geometry">
            <mxPoint x="700" y="-2020" as="sourcePoint" />
            <mxPoint x="750" y="-2070" as="targetPoint" />
          </mxGeometry>
        </mxCell>
        <mxCell id="PwuGtuINyydhHZ7qy8_O-37" value="" style="endArrow=none;html=1;rounded=0;entryX=0.5;entryY=0;entryDx=0;entryDy=0;exitX=0.5;exitY=1;exitDx=0;exitDy=0;" edge="1" parent="1" source="PwuGtuINyydhHZ7qy8_O-18" target="PwuGtuINyydhHZ7qy8_O-5">
          <mxGeometry width="50" height="50" relative="1" as="geometry">
            <mxPoint x="610" y="-1950" as="sourcePoint" />
            <mxPoint x="660" y="-2000" as="targetPoint" />
          </mxGeometry>
        </mxCell>
        <mxCell id="PwuGtuINyydhHZ7qy8_O-38" value="" style="endArrow=none;html=1;rounded=0;exitX=0.5;exitY=0;exitDx=0;exitDy=0;entryX=1;entryY=1;entryDx=0;entryDy=0;" edge="1" parent="1" source="PwuGtuINyydhHZ7qy8_O-5" target="PwuGtuINyydhHZ7qy8_O-20">
          <mxGeometry width="50" height="50" relative="1" as="geometry">
            <mxPoint x="690" y="-2060" as="sourcePoint" />
            <mxPoint x="740" y="-2110" as="targetPoint" />
          </mxGeometry>
        </mxCell>
        <mxCell id="PwuGtuINyydhHZ7qy8_O-40" value="nm_pemasok" style="ellipse;whiteSpace=wrap;html=1;" vertex="1" parent="1">
          <mxGeometry x="469" y="-1660" width="100" height="30" as="geometry" />
        </mxCell>
        <mxCell id="PwuGtuINyydhHZ7qy8_O-41" value="alamat" style="ellipse;whiteSpace=wrap;html=1;" vertex="1" parent="1">
          <mxGeometry x="300" y="-1600" width="100" height="30" as="geometry" />
        </mxCell>
        <mxCell id="PwuGtuINyydhHZ7qy8_O-42" value="no_pemasok" style="ellipse;whiteSpace=wrap;html=1;" vertex="1" parent="1">
          <mxGeometry x="300" y="-1660" width="100" height="30" as="geometry" />
        </mxCell>
        <mxCell id="PwuGtuINyydhHZ7qy8_O-43" value="kota" style="ellipse;whiteSpace=wrap;html=1;" vertex="1" parent="1">
          <mxGeometry x="379" y="-1530" width="100" height="30" as="geometry" />
        </mxCell>
        <mxCell id="PwuGtuINyydhHZ7qy8_O-46" value="telpon" style="ellipse;whiteSpace=wrap;html=1;" vertex="1" parent="1">
          <mxGeometry x="469" y="-1600" width="100" height="30" as="geometry" />
        </mxCell>
        <mxCell id="PwuGtuINyydhHZ7qy8_O-47" value="" style="endArrow=none;html=1;rounded=0;entryX=0.5;entryY=1;entryDx=0;entryDy=0;exitX=0.5;exitY=0;exitDx=0;exitDy=0;" edge="1" parent="1" source="PwuGtuINyydhHZ7qy8_O-42" target="PwuGtuINyydhHZ7qy8_O-6">
          <mxGeometry width="50" height="50" relative="1" as="geometry">
            <mxPoint x="400" y="-1580" as="sourcePoint" />
            <mxPoint x="450" y="-1630" as="targetPoint" />
          </mxGeometry>
        </mxCell>
        <mxCell id="PwuGtuINyydhHZ7qy8_O-48" value="" style="endArrow=none;html=1;rounded=0;entryX=0.5;entryY=1;entryDx=0;entryDy=0;exitX=0.5;exitY=0;exitDx=0;exitDy=0;" edge="1" parent="1" source="PwuGtuINyydhHZ7qy8_O-40" target="PwuGtuINyydhHZ7qy8_O-6">
          <mxGeometry width="50" height="50" relative="1" as="geometry">
            <mxPoint x="430" y="-1570" as="sourcePoint" />
            <mxPoint x="480" y="-1620" as="targetPoint" />
          </mxGeometry>
        </mxCell>
        <mxCell id="PwuGtuINyydhHZ7qy8_O-49" value="" style="endArrow=none;html=1;rounded=0;entryX=0.5;entryY=1;entryDx=0;entryDy=0;exitX=1;exitY=0;exitDx=0;exitDy=0;" edge="1" parent="1" source="PwuGtuINyydhHZ7qy8_O-41" target="PwuGtuINyydhHZ7qy8_O-6">
          <mxGeometry width="50" height="50" relative="1" as="geometry">
            <mxPoint x="400" y="-1580" as="sourcePoint" />
            <mxPoint x="450" y="-1630" as="targetPoint" />
          </mxGeometry>
        </mxCell>
        <mxCell id="PwuGtuINyydhHZ7qy8_O-50" value="" style="endArrow=none;html=1;rounded=0;entryX=0.5;entryY=1;entryDx=0;entryDy=0;exitX=0;exitY=0;exitDx=0;exitDy=0;" edge="1" parent="1" source="PwuGtuINyydhHZ7qy8_O-46" target="PwuGtuINyydhHZ7qy8_O-6">
          <mxGeometry width="50" height="50" relative="1" as="geometry">
            <mxPoint x="400" y="-1580" as="sourcePoint" />
            <mxPoint x="450" y="-1630" as="targetPoint" />
          </mxGeometry>
        </mxCell>
        <mxCell id="PwuGtuINyydhHZ7qy8_O-51" value="" style="endArrow=none;html=1;rounded=0;entryX=0.5;entryY=1;entryDx=0;entryDy=0;exitX=0.5;exitY=0;exitDx=0;exitDy=0;" edge="1" parent="1" source="PwuGtuINyydhHZ7qy8_O-43" target="PwuGtuINyydhHZ7qy8_O-6">
          <mxGeometry width="50" height="50" relative="1" as="geometry">
            <mxPoint x="400" y="-1580" as="sourcePoint" />
            <mxPoint x="450" y="-1630" as="targetPoint" />
          </mxGeometry>
        </mxCell>
        <mxCell id="PwuGtuINyydhHZ7qy8_O-52" value="memiliki" style="rhombus;whiteSpace=wrap;html=1;" vertex="1" parent="1">
          <mxGeometry x="240" y="-1970" width="90" height="50" as="geometry" />
        </mxCell>
        <mxCell id="PwuGtuINyydhHZ7qy8_O-54" value="beli" style="rhombus;whiteSpace=wrap;html=1;" vertex="1" parent="1">
          <mxGeometry x="380" y="-1860" width="100" height="40" as="geometry" />
        </mxCell>
        <mxCell id="PwuGtuINyydhHZ7qy8_O-55" value="berada" style="rhombus;whiteSpace=wrap;html=1;" vertex="1" parent="1">
          <mxGeometry x="510" y="-1970" width="90" height="50" as="geometry" />
        </mxCell>
        <mxCell id="PwuGtuINyydhHZ7qy8_O-57" value="" style="endArrow=none;html=1;rounded=0;entryX=0;entryY=0.5;entryDx=0;entryDy=0;exitX=1;exitY=0.5;exitDx=0;exitDy=0;" edge="1" parent="1" source="PwuGtuINyydhHZ7qy8_O-3" target="PwuGtuINyydhHZ7qy8_O-52">
          <mxGeometry width="50" height="50" relative="1" as="geometry">
            <mxPoint x="190" y="-1890" as="sourcePoint" />
            <mxPoint x="240" y="-1940" as="targetPoint" />
          </mxGeometry>
        </mxCell>
        <mxCell id="PwuGtuINyydhHZ7qy8_O-58" value="1" style="edgeLabel;html=1;align=center;verticalAlign=middle;resizable=0;points=[];" vertex="1" connectable="0" parent="PwuGtuINyydhHZ7qy8_O-57">
          <mxGeometry x="0.1364" y="3" relative="1" as="geometry">
            <mxPoint x="1" as="offset" />
          </mxGeometry>
        </mxCell>
        <mxCell id="PwuGtuINyydhHZ7qy8_O-59" value="N" style="endArrow=none;html=1;rounded=0;entryX=0;entryY=0.5;entryDx=0;entryDy=0;exitX=1;exitY=0.5;exitDx=0;exitDy=0;" edge="1" parent="1" source="PwuGtuINyydhHZ7qy8_O-52" target="PwuGtuINyydhHZ7qy8_O-4">
          <mxGeometry width="50" height="50" relative="1" as="geometry">
            <mxPoint x="340" y="-1890" as="sourcePoint" />
            <mxPoint x="390" y="-1940" as="targetPoint" />
          </mxGeometry>
        </mxCell>
        <mxCell id="PwuGtuINyydhHZ7qy8_O-60" value="1,N" style="endArrow=none;html=1;rounded=0;exitX=1;exitY=0.5;exitDx=0;exitDy=0;entryX=0;entryY=0.5;entryDx=0;entryDy=0;" edge="1" parent="1" source="PwuGtuINyydhHZ7qy8_O-4" target="PwuGtuINyydhHZ7qy8_O-55">
          <mxGeometry width="50" height="50" relative="1" as="geometry">
            <mxPoint x="470" y="-1870" as="sourcePoint" />
            <mxPoint x="520" y="-1920" as="targetPoint" />
          </mxGeometry>
        </mxCell>
        <mxCell id="PwuGtuINyydhHZ7qy8_O-61" value="1,N" style="endArrow=none;html=1;rounded=0;entryX=0;entryY=0.5;entryDx=0;entryDy=0;exitX=1;exitY=0.5;exitDx=0;exitDy=0;" edge="1" parent="1" source="PwuGtuINyydhHZ7qy8_O-55" target="PwuGtuINyydhHZ7qy8_O-5">
          <mxGeometry width="50" height="50" relative="1" as="geometry">
            <mxPoint x="570" y="-1860" as="sourcePoint" />
            <mxPoint x="620" y="-1910" as="targetPoint" />
          </mxGeometry>
        </mxCell>
        <mxCell id="PwuGtuINyydhHZ7qy8_O-62" value="" style="endArrow=none;html=1;rounded=0;entryX=0.5;entryY=1;entryDx=0;entryDy=0;exitX=0.5;exitY=0;exitDx=0;exitDy=0;" edge="1" parent="1" source="PwuGtuINyydhHZ7qy8_O-54" target="PwuGtuINyydhHZ7qy8_O-4">
          <mxGeometry width="50" height="50" relative="1" as="geometry">
            <mxPoint x="410" y="-1870" as="sourcePoint" />
            <mxPoint x="460" y="-1920" as="targetPoint" />
          </mxGeometry>
        </mxCell>
        <mxCell id="PwuGtuINyydhHZ7qy8_O-64" value="1,N" style="edgeLabel;html=1;align=center;verticalAlign=middle;resizable=0;points=[];" vertex="1" connectable="0" parent="PwuGtuINyydhHZ7qy8_O-62">
          <mxGeometry x="0.0743" relative="1" as="geometry">
            <mxPoint as="offset" />
          </mxGeometry>
        </mxCell>
        <mxCell id="PwuGtuINyydhHZ7qy8_O-63" value="1,N" style="endArrow=none;html=1;rounded=0;entryX=0.5;entryY=1;entryDx=0;entryDy=0;exitX=0.5;exitY=0;exitDx=0;exitDy=0;" edge="1" parent="1" source="PwuGtuINyydhHZ7qy8_O-6" target="PwuGtuINyydhHZ7qy8_O-54">
          <mxGeometry width="50" height="50" relative="1" as="geometry">
            <mxPoint x="410" y="-1750" as="sourcePoint" />
            <mxPoint x="460" y="-1800" as="targetPoint" />
          </mxGeometry>
        </mxCell>
        <mxCell id="PwuGtuINyydhHZ7qy8_O-67" value="kd_brg" style="ellipse;whiteSpace=wrap;html=1;" vertex="1" parent="1">
          <mxGeometry x="490" y="-1900" width="100" height="30" as="geometry" />
        </mxCell>
        <mxCell id="PwuGtuINyydhHZ7qy8_O-68" value="jml_beli" style="ellipse;whiteSpace=wrap;html=1;" vertex="1" parent="1">
          <mxGeometry x="620" y="-1880" width="100" height="30" as="geometry" />
        </mxCell>
        <mxCell id="PwuGtuINyydhHZ7qy8_O-69" value="hrg_beli" style="ellipse;whiteSpace=wrap;html=1;" vertex="1" parent="1">
          <mxGeometry x="620" y="-1830" width="100" height="30" as="geometry" />
        </mxCell>
        <mxCell id="PwuGtuINyydhHZ7qy8_O-70" value="no_pemasok" style="ellipse;whiteSpace=wrap;html=1;" vertex="1" parent="1">
          <mxGeometry x="490" y="-1820" width="100" height="30" as="geometry" />
        </mxCell>
        <mxCell id="PwuGtuINyydhHZ7qy8_O-71" value="total" style="ellipse;whiteSpace=wrap;html=1;" vertex="1" parent="1">
          <mxGeometry x="740" y="-1855" width="80" height="30" as="geometry" />
        </mxCell>
        <mxCell id="PwuGtuINyydhHZ7qy8_O-72" value="" style="endArrow=none;html=1;rounded=0;exitX=1;exitY=0.5;exitDx=0;exitDy=0;entryX=0.5;entryY=1;entryDx=0;entryDy=0;" edge="1" parent="1" source="PwuGtuINyydhHZ7qy8_O-54" target="PwuGtuINyydhHZ7qy8_O-67">
          <mxGeometry width="50" height="50" relative="1" as="geometry">
            <mxPoint x="480" y="-1820" as="sourcePoint" />
            <mxPoint x="530" y="-1870" as="targetPoint" />
          </mxGeometry>
        </mxCell>
        <mxCell id="PwuGtuINyydhHZ7qy8_O-73" value="" style="endArrow=none;html=1;rounded=0;exitX=1;exitY=0.5;exitDx=0;exitDy=0;entryX=0.5;entryY=0;entryDx=0;entryDy=0;" edge="1" parent="1" source="PwuGtuINyydhHZ7qy8_O-54" target="PwuGtuINyydhHZ7qy8_O-70">
          <mxGeometry width="50" height="50" relative="1" as="geometry">
            <mxPoint x="510" y="-1790" as="sourcePoint" />
            <mxPoint x="560" y="-1840" as="targetPoint" />
          </mxGeometry>
        </mxCell>
        <mxCell id="PwuGtuINyydhHZ7qy8_O-74" value="" style="endArrow=none;html=1;rounded=0;exitX=1;exitY=0.5;exitDx=0;exitDy=0;entryX=0;entryY=0.5;entryDx=0;entryDy=0;" edge="1" parent="1" source="PwuGtuINyydhHZ7qy8_O-54" target="PwuGtuINyydhHZ7qy8_O-68">
          <mxGeometry width="50" height="50" relative="1" as="geometry">
            <mxPoint x="570" y="-1800" as="sourcePoint" />
            <mxPoint x="620" y="-1850" as="targetPoint" />
          </mxGeometry>
        </mxCell>
        <mxCell id="PwuGtuINyydhHZ7qy8_O-75" value="" style="endArrow=none;html=1;rounded=0;exitX=1;exitY=0.5;exitDx=0;exitDy=0;entryX=0;entryY=0.5;entryDx=0;entryDy=0;" edge="1" parent="1" source="PwuGtuINyydhHZ7qy8_O-54" target="PwuGtuINyydhHZ7qy8_O-69">
          <mxGeometry width="50" height="50" relative="1" as="geometry">
            <mxPoint x="540" y="-1780" as="sourcePoint" />
            <mxPoint x="590" y="-1830" as="targetPoint" />
          </mxGeometry>
        </mxCell>
        <mxCell id="PwuGtuINyydhHZ7qy8_O-76" value="" style="endArrow=none;html=1;rounded=0;entryX=0;entryY=0.5;entryDx=0;entryDy=0;exitX=1;exitY=0.5;exitDx=0;exitDy=0;" edge="1" parent="1" source="PwuGtuINyydhHZ7qy8_O-54" target="PwuGtuINyydhHZ7qy8_O-71">
          <mxGeometry width="50" height="50" relative="1" as="geometry">
            <mxPoint x="680" y="-1780" as="sourcePoint" />
            <mxPoint x="730" y="-1830" as="targetPoint" />
          </mxGeometry>
        </mxCell>
      </root>
    </mxGraphModel>
  </diagram>
</mxfile>
